<?xml version="1.0" standalone="no"?>
<!DOCTYPE svg PUBLIC "-//W3C//DTD SVG 20010904//EN"
 "http://www.w3.org/TR/2001/REC-SVG-20010904/DTD/svg10.dtd">
<svg version="1.0" xmlns="http://www.w3.org/2000/svg"
 width="512.000000pt" height="512.000000pt" viewBox="0 0 512.000000 512.000000"
 preserveAspectRatio="xMidYMid meet">

<g transform="translate(0.000000,512.000000) scale(0.100000,-0.100000)"
fill="#000000" stroke="none">
<path d="M1563 5110 c-607 -77 -1109 -433 -1382 -979 -133 -264 -190 -545
-178 -876 19 -509 145 -1012 387 -1546 257 -564 680 -1153 1115 -1549 164
-149 174 -155 256 -155 87 0 110 16 311 216 88 87 161 159 163 159 2 0 54 -35
117 -77 457 -309 1040 -387 1562 -206 834 287 1334 1138 1176 2002 -133 732
-717 1309 -1448 1433 l-131 23 -11 70 c-80 494 -357 925 -774 1205 -177 119
-448 226 -666 265 -111 19 -393 28 -497 15z m362 -401 c448 -55 848 -338 1053
-745 68 -135 146 -411 118 -419 -6 -2 -42 -9 -81 -15 -38 -7 -121 -28 -182
-46 -62 -19 -114 -34 -117 -34 -2 0 -6 25 -10 55 -3 30 -18 92 -32 137 -49
155 -123 277 -238 393 -372 375 -977 376 -1352 1 -462 -463 -335 -1238 251
-1533 76 -39 209 -81 280 -89 30 -4 55 -10 55 -14 0 -3 -11 -39 -25 -79 -176
-518 -71 -1156 263 -1594 l44 -58 -97 -97 -96 -97 -110 114 c-390 405 -737
918 -947 1402 -262 604 -365 1275 -261 1698 164 662 805 1103 1484 1020z m-52
-804 c109 -23 192 -69 277 -155 87 -86 132 -168 156 -282 15 -68 13 -192 -2
-233 -3 -8 -31 -33 -62 -57 -85 -64 -213 -190 -283 -278 -34 -44 -68 -81 -75
-84 -7 -3 -46 -8 -86 -11 -92 -8 -194 12 -286 57 -92 45 -207 159 -250 250
-109 224 -68 463 108 638 142 142 315 195 503 155z m1749 -775 c543 -114 965
-544 1075 -1097 24 -121 24 -385 0 -506 -111 -555 -529 -981 -1080 -1099 -135
-29 -398 -31 -530 -5 -555 111 -980 529 -1099 1080 -31 146 -31 408 0 554 128
594 597 1018 1212 1097 80 10 327 -4 422 -24z"/>
<path d="M3275 2747 c-56 -23 -84 -48 -110 -100 l-25 -51 0 -420 c0 -277 4
-435 11 -461 9 -31 44 -73 168 -198 86 -87 175 -170 199 -184 72 -43 170 -32
236 26 55 49 76 163 41 231 -10 19 -71 89 -136 155 l-118 120 -3 380 -3 380
-24 38 c-34 55 -88 87 -152 92 -30 3 -67 -1 -84 -8z"/>
</g>
</svg>
